<svg width="400" height="120" viewBox="0 0 400 120" fill="none" xmlns="http://www.w3.org/2000/svg">
  <!-- Rover -->
  <g fill="#FFFFFF">
    <!-- Wheels (Outer thick rings) -->
    <circle cx="28" cy="100" r="7.5" fill="transparent" stroke="#FFFFFF" stroke-width="5" />
    <circle cx="56" cy="100" r="7.5" fill="transparent" stroke="#FFFFFF" stroke-width="5" />
    <circle cx="90" cy="100" r="7.5" fill="transparent" stroke="#FFFFFF" stroke-width="5" />
    
    <!-- Suspension / Struts -->
    <path d="M 28 92.5 L 39 78 M 56 92.5 L 39 78" stroke="#FFFFFF" stroke-width="3.5" stroke-linecap="round" stroke-linejoin="round" />
    <path d="M 85 92.5 L 72 78" stroke="#FFFFFF" stroke-width="3.5" stroke-linecap="round" />
    
    <!-- Body -->
    <path d="M 23 60 
             L 86 60 
             L 78 78 
             L 23 78 
             C 19 78, 17 76, 17 73 
             L 17 65 
             C 17 62, 19 60, 23 60 Z" 
          fill="#FFFFFF" />
          
    <!-- Left Appendage (Vertical stick with angled dish) -->
    <line x1="33" y1="60" x2="33" y2="46" stroke="#FFFFFF" stroke-width="3.5" stroke-linecap="butt" />
    <line x1="27" y1="41" x2="36" y2="47" stroke="#FFFFFF" stroke-width="4.5" stroke-linecap="round" />
    
    <!-- Mast Assembly -->
    <!-- Base Box (narrowed further by 7.5%) -->
    <path d="M 64.5 60 L 64.5 55 Q 64.5 52 67.5 52 L 74.5 52 Q 77.5 52 77.5 55 L 77.5 60 Z" fill="#FFFFFF" />
    <rect x="69.25" y="24" width="3.5" height="30" fill="#FFFFFF" />
    <rect x="56.5" y="10" width="29" height="14" rx="3" fill="#FFFFFF" />
  </g>

  <!-- Text -->
  <path d="M132.16 60L125.03 60L125.03 35.01L115.18 35.01L115.18 29.20L142.02 29.20L142.02 35.01L132.16 35.01L132.16 60Z" fill="#FFFFFF"/>
    <path d="M156.93 47.15L156.93 54.28L173.69 54.28L173.69 60L149.84 60L149.84 29.20L173.12 29.20L173.12 34.92L156.93 34.92L156.93 41.61L171.23 41.61L171.23 47.15L156.93 47.15Z" fill="#FFFFFF"/>
    <path d="M186.62 60L179.32 60L193.05 29.20L200.09 29.20L213.86 60L206.38 60L203.65 53.40L189.35 53.40L186.62 60ZM196.52 36.24L191.60 47.99L201.41 47.99L196.52 36.24Z" fill="#FFFFFF"/>
    <path d="M227.76 60L221.07 60L221.07 29.20L226.97 29.20L238.50 48.34L249.85 29.20L255.70 29.20L255.79 60L249.10 60L249.06 41.56L239.99 56.74L236.78 56.74L227.76 41.87L227.76 60Z" fill="#FFFFFF"/>
  <path d="M131.04 102.46L131.04 102.46Q127.88 102.46 125.24 101.43Q122.60 100.40 120.62 98.54Q118.65 96.68 117.56 94.17Q116.48 91.66 116.48 88.70L116.48 88.70Q116.48 85.74 117.56 83.23Q118.65 80.72 120.62 78.86Q122.60 77.00 125.24 75.97Q127.88 74.94 131.04 74.94L131.04 74.94Q134.19 74.94 136.83 75.97Q139.47 77.00 141.45 78.84Q143.42 80.68 144.51 83.21Q145.59 85.74 145.59 88.70L145.59 88.70Q145.59 91.66 144.51 94.19Q143.42 96.72 141.45 98.56Q139.47 100.40 136.83 101.43Q134.19 102.46 131.04 102.46ZM131.04 97.21L131.04 97.21Q133.39 97.21 135.27 96.13Q137.15 95.05 138.26 93.13Q139.36 91.21 139.36 88.70L139.36 88.70Q139.36 86.19 138.26 84.27Q137.15 82.35 135.27 81.27Q133.39 80.19 131.04 80.19L131.04 80.19Q128.68 80.19 126.80 81.27Q124.92 82.35 123.82 84.27Q122.71 86.19 122.71 88.70L122.71 88.70Q122.71 91.21 123.82 93.13Q124.92 95.05 126.80 96.13Q128.68 97.21 131.04 97.21Z" fill="#4A83EE"/>
    <path d="M164.31 102L152.23 102L152.23 75.40L164.31 75.40Q168.64 75.40 171.95 77.05Q175.25 78.71 177.12 81.69Q178.98 84.67 178.98 88.70L178.98 88.70Q178.98 92.73 177.12 95.71Q175.25 98.69 171.95 100.35Q168.64 102 164.31 102L164.31 102ZM158.38 80.45L158.38 96.95L164.01 96.95Q166.67 96.95 168.62 95.94Q170.58 94.93 171.66 93.09Q172.75 91.25 172.75 88.70L172.75 88.70Q172.75 86.15 171.66 84.31Q170.58 82.47 168.62 81.46Q166.67 80.45 164.01 80.45L164.01 80.45L158.38 80.45Z" fill="#4A83EE"/>
    <path d="M198.38 102L192.23 102L192.23 92.54L181.93 75.40L188.46 75.40L195.53 87.22L202.68 75.40L208.72 75.40L198.38 92.58L198.38 102Z" fill="#4A83EE"/>
    <path d="M222.04 102.46L222.04 102.46Q218.85 102.46 215.92 101.60Q213.00 100.75 211.21 99.38L211.21 99.38L213.30 94.74Q214.97 95.96 217.33 96.74Q219.69 97.52 222.08 97.52L222.08 97.52Q224.82 97.52 226.01 96.72Q227.21 95.92 227.21 94.67L227.21 94.67Q227.21 93.60 226.37 92.97Q225.54 92.35 224.15 91.95Q222.76 91.55 221.13 91.19Q219.50 90.83 217.84 90.31Q216.19 89.80 214.80 88.95Q213.42 88.09 212.58 86.70Q211.74 85.32 211.74 83.23L211.74 83.23Q211.74 80.95 212.98 79.07Q214.21 77.19 216.70 76.06Q219.19 74.94 222.95 74.94L222.95 74.94Q225.46 74.94 227.89 75.55Q230.33 76.16 232.19 77.30L232.19 77.30L230.29 81.97Q228.43 80.91 226.54 80.40Q224.66 79.88 222.92 79.88L222.92 79.88Q220.18 79.88 219.02 80.78Q217.86 81.67 217.86 82.92L217.86 82.92Q217.86 83.95 218.70 84.58Q219.53 85.20 220.90 85.60Q222.27 86.00 223.92 86.34Q225.58 86.69 227.23 87.20Q228.88 87.71 230.27 88.55Q231.66 89.38 232.49 90.75Q233.33 92.12 233.33 94.21L233.33 94.21Q233.33 96.45 232.09 98.31Q230.86 100.18 228.35 101.32Q225.84 102.46 222.04 102.46Z" fill="#4A83EE"/>
    <path d="M248.29 102.46L248.29 102.46Q245.09 102.46 242.17 101.60Q239.24 100.75 237.46 99.38L237.46 99.38L239.55 94.74Q241.22 95.96 243.57 96.74Q245.93 97.52 248.32 97.52L248.32 97.52Q251.06 97.52 252.26 96.72Q253.45 95.92 253.45 94.67L253.45 94.67Q253.45 93.60 252.62 92.97Q251.78 92.35 250.39 91.95Q249.01 91.55 247.37 91.19Q245.74 90.83 244.09 90.31Q242.43 89.80 241.05 88.95Q239.66 88.09 238.82 86.70Q237.99 85.32 237.99 83.23L237.99 83.23Q237.99 80.95 239.22 79.07Q240.46 77.19 242.95 76.06Q245.44 74.94 249.20 74.94L249.20 74.94Q251.71 74.94 254.14 75.55Q256.57 76.16 258.43 77.30L258.43 77.30L256.53 81.97Q254.67 80.91 252.79 80.40Q250.91 79.88 249.16 79.88L249.16 79.88Q246.42 79.88 245.26 80.78Q244.11 81.67 244.11 82.92L244.11 82.92Q244.11 83.95 244.94 84.58Q245.78 85.20 247.15 85.60Q248.51 86.00 250.17 86.34Q251.82 86.69 253.47 87.20Q255.13 87.71 256.51 88.55Q257.90 89.38 258.74 90.75Q259.57 92.12 259.57 94.21L259.57 94.21Q259.57 96.45 258.34 98.31Q257.10 100.18 254.59 101.32Q252.09 102.46 248.29 102.46Z" fill="#4A83EE"/>
    <path d="M271.91 90.90L271.91 97.06L286.39 97.06L286.39 102L265.79 102L265.79 75.40L285.89 75.40L285.89 80.34L271.91 80.34L271.91 86.12L284.26 86.12L284.26 90.90L271.91 90.90Z" fill="#4A83EE"/>
    <path d="M306.06 102L299.90 102L299.90 92.54L289.60 75.40L296.14 75.40L303.21 87.22L310.35 75.40L316.39 75.40L306.06 92.58L306.06 102Z" fill="#4A83EE"/>
</svg>